<svg width="994" height="192" viewBox="0 0 994 192" fill="none" xmlns="http://www.w3.org/2000/svg">
<circle cx="96" cy="96" r="95.5" stroke="black" stroke-opacity="0.7" stroke-dasharray="2 2"/>
<circle cx="96.5" cy="96.5" r="87" stroke="black" stroke-opacity="0.7" stroke-dasharray="2 4 6 8"/>
<path d="M81.478 63.5455V129H77.5788L35.8388 70.8004H35.4553V129H31.4602V63.5455H35.3913L77.1314 121.809H77.5149V63.5455H81.478ZM100.366 63.5455H104.713L129.93 123.247H130.377L155.594 63.5455H159.94V129H156.105V73.0376H155.722L132.039 129H128.268L104.585 73.0376H104.202V129H100.366V63.5455Z" fill="black" fill-opacity="0.7"/>
<path d="M262.04 67.8182V126H256.869L222.494 77.2784H222.04V126H216.727V67.8182H221.869L256.358 116.597H256.812V67.8182H262.04ZM288.645 126.994C286.012 126.994 283.607 126.483 281.429 125.46C279.251 124.419 277.518 122.922 276.23 120.972C274.942 119.002 274.298 116.616 274.298 113.812C274.298 111.653 274.705 109.835 275.52 108.358C276.334 106.881 277.49 105.669 278.986 104.722C280.482 103.775 282.253 103.027 284.298 102.477C286.344 101.928 288.598 101.502 291.06 101.199C293.503 100.896 295.567 100.631 297.253 100.403C298.957 100.176 300.255 99.8163 301.145 99.3239C302.035 98.8314 302.48 98.036 302.48 96.9375V95.9148C302.48 92.9413 301.59 90.6023 299.81 88.8977C298.048 87.1742 295.51 86.3125 292.196 86.3125C289.052 86.3125 286.486 87.0038 284.497 88.3864C282.527 89.7689 281.145 91.3977 280.349 93.2727L275.548 91.5398C276.533 89.1534 277.897 87.25 279.639 85.8295C281.382 84.3902 283.332 83.358 285.491 82.733C287.651 82.089 289.838 81.767 292.054 81.767C293.721 81.767 295.454 81.9848 297.253 82.4205C299.071 82.8561 300.757 83.6136 302.31 84.6932C303.863 85.7538 305.122 87.2405 306.088 89.1534C307.054 91.0473 307.537 93.4527 307.537 96.3693V126H302.48V119.097H302.168C301.562 120.384 300.662 121.634 299.469 122.847C298.276 124.059 296.779 125.053 294.98 125.83C293.181 126.606 291.069 126.994 288.645 126.994ZM289.327 122.364C292.016 122.364 294.346 121.767 296.315 120.574C298.285 119.381 299.8 117.799 300.861 115.83C301.94 113.841 302.48 111.653 302.48 109.267V102.96C302.101 103.32 301.467 103.642 300.577 103.926C299.705 104.21 298.692 104.466 297.537 104.693C296.401 104.902 295.264 105.081 294.128 105.233C292.991 105.384 291.969 105.517 291.06 105.631C288.598 105.934 286.495 106.407 284.753 107.051C283.01 107.695 281.675 108.585 280.747 109.722C279.819 110.839 279.355 112.278 279.355 114.04C279.355 116.691 280.302 118.746 282.196 120.205C284.09 121.644 286.467 122.364 289.327 122.364ZM338.176 82.3636V86.767H317.352V82.3636H338.176ZM323.858 71.9091H328.943V114.608C328.943 116.426 329.256 117.856 329.881 118.898C330.506 119.92 331.32 120.65 332.324 121.085C333.328 121.502 334.398 121.71 335.534 121.71C336.197 121.71 336.765 121.672 337.239 121.597C337.712 121.502 338.129 121.407 338.489 121.312L339.568 125.886C339.076 126.076 338.47 126.246 337.75 126.398C337.03 126.568 336.14 126.653 335.08 126.653C333.223 126.653 331.434 126.246 329.71 125.432C328.006 124.617 326.604 123.405 325.506 121.795C324.407 120.186 323.858 118.188 323.858 115.801V71.9091ZM361.848 126.994C359.215 126.994 356.81 126.483 354.632 125.46C352.454 124.419 350.721 122.922 349.433 120.972C348.145 119.002 347.501 116.616 347.501 113.812C347.501 111.653 347.909 109.835 348.723 108.358C349.537 106.881 350.693 105.669 352.189 104.722C353.685 103.775 355.456 103.027 357.501 102.477C359.547 101.928 361.801 101.502 364.263 101.199C366.706 100.896 368.77 100.631 370.456 100.403C372.161 100.176 373.458 99.8163 374.348 99.3239C375.238 98.8314 375.683 98.036 375.683 96.9375V95.9148C375.683 92.9413 374.793 90.6023 373.013 88.8977C371.251 87.1742 368.714 86.3125 365.399 86.3125C362.255 86.3125 359.689 87.0038 357.7 88.3864C355.731 89.7689 354.348 91.3977 353.553 93.2727L348.751 91.5398C349.736 89.1534 351.1 87.25 352.842 85.8295C354.585 84.3902 356.536 83.358 358.695 82.733C360.854 82.089 363.041 81.767 365.257 81.767C366.924 81.767 368.657 81.9848 370.456 82.4205C372.274 82.8561 373.96 83.6136 375.513 84.6932C377.066 85.7538 378.325 87.2405 379.291 89.1534C380.257 91.0473 380.74 93.4527 380.74 96.3693V126H375.683V119.097H375.371C374.765 120.384 373.865 121.634 372.672 122.847C371.479 124.059 369.982 125.053 368.183 125.83C366.384 126.606 364.272 126.994 361.848 126.994ZM362.53 122.364C365.219 122.364 367.549 121.767 369.518 120.574C371.488 119.381 373.003 117.799 374.064 115.83C375.143 113.841 375.683 111.653 375.683 109.267V102.96C375.304 103.32 374.67 103.642 373.78 103.926C372.909 104.21 371.895 104.466 370.74 104.693C369.604 104.902 368.467 105.081 367.331 105.233C366.195 105.384 365.172 105.517 364.263 105.631C361.801 105.934 359.698 106.407 357.956 107.051C356.214 107.695 354.878 108.585 353.95 109.722C353.022 110.839 352.558 112.278 352.558 114.04C352.558 116.691 353.505 118.746 355.399 120.205C357.293 121.644 359.67 122.364 362.53 122.364ZM399.249 67.8182V126H394.192V67.8182H399.249ZM412.686 126V82.3636H417.771V126H412.686ZM415.271 74.8636C414.23 74.8636 413.339 74.5133 412.601 73.8125C411.862 73.0928 411.493 72.2311 411.493 71.2273C411.493 70.2235 411.862 69.3712 412.601 68.6705C413.339 67.9508 414.23 67.5909 415.271 67.5909C416.313 67.5909 417.203 67.9508 417.942 68.6705C418.68 69.3712 419.05 70.2235 419.05 71.2273C419.05 72.2311 418.68 73.0928 417.942 73.8125C417.203 74.5133 416.313 74.8636 415.271 74.8636ZM431.202 126V82.3636H436.287V126H431.202ZM433.787 74.8636C432.745 74.8636 431.855 74.5133 431.116 73.8125C430.378 73.0928 430.009 72.2311 430.009 71.2273C430.009 70.2235 430.378 69.3712 431.116 68.6705C431.855 67.9508 432.745 67.5909 433.787 67.5909C434.829 67.5909 435.719 67.9508 436.457 68.6705C437.196 69.3712 437.565 70.2235 437.565 71.2273C437.565 72.2311 437.196 73.0928 436.457 73.8125C435.719 74.5133 434.829 74.8636 433.787 74.8636ZM461.848 126.994C459.215 126.994 456.81 126.483 454.632 125.46C452.454 124.419 450.721 122.922 449.433 120.972C448.145 119.002 447.501 116.616 447.501 113.812C447.501 111.653 447.909 109.835 448.723 108.358C449.537 106.881 450.693 105.669 452.189 104.722C453.685 103.775 455.456 103.027 457.501 102.477C459.547 101.928 461.801 101.502 464.263 101.199C466.706 100.896 468.77 100.631 470.456 100.403C472.161 100.176 473.458 99.8163 474.348 99.3239C475.238 98.8314 475.683 98.036 475.683 96.9375V95.9148C475.683 92.9413 474.793 90.6023 473.013 88.8977C471.251 87.1742 468.714 86.3125 465.399 86.3125C462.255 86.3125 459.689 87.0038 457.7 88.3864C455.731 89.7689 454.348 91.3977 453.553 93.2727L448.751 91.5398C449.736 89.1534 451.1 87.25 452.842 85.8295C454.585 84.3902 456.536 83.358 458.695 82.733C460.854 82.089 463.041 81.767 465.257 81.767C466.924 81.767 468.657 81.9848 470.456 82.4205C472.274 82.8561 473.96 83.6136 475.513 84.6932C477.066 85.7538 478.325 87.2405 479.291 89.1534C480.257 91.0473 480.74 93.4527 480.74 96.3693V126H475.683V119.097H475.371C474.765 120.384 473.865 121.634 472.672 122.847C471.479 124.059 469.982 125.053 468.183 125.83C466.384 126.606 464.272 126.994 461.848 126.994ZM462.53 122.364C465.219 122.364 467.549 121.767 469.518 120.574C471.488 119.381 473.003 117.799 474.064 115.83C475.143 113.841 475.683 111.653 475.683 109.267V102.96C475.304 103.32 474.67 103.642 473.78 103.926C472.909 104.21 471.895 104.466 470.74 104.693C469.604 104.902 468.467 105.081 467.331 105.233C466.195 105.384 465.172 105.517 464.263 105.631C461.801 105.934 459.698 106.407 457.956 107.051C456.214 107.695 454.878 108.585 453.95 109.722C453.022 110.839 452.558 112.278 452.558 114.04C452.558 116.691 453.505 118.746 455.399 120.205C457.293 121.644 459.67 122.364 462.53 122.364ZM517.743 67.8182H523.879L544.987 118.5H545.499L566.607 67.8182H572.743V126H567.743V79.0398H567.288L547.658 126H542.828L523.197 79.0398H522.743V126H517.743V67.8182ZM604.803 126.909C600.731 126.909 597.208 125.962 594.234 124.068C591.261 122.155 588.96 119.513 587.331 116.142C585.721 112.752 584.916 108.85 584.916 104.438C584.916 100.044 585.721 96.142 587.331 92.733C588.96 89.3049 591.204 86.625 594.064 84.6932C596.943 82.7424 600.267 81.767 604.036 81.767C606.403 81.767 608.685 82.2027 610.882 83.0739C613.079 83.9261 615.049 85.2424 616.791 87.0227C618.553 88.7841 619.945 91.0095 620.967 93.6989C621.99 96.3693 622.501 99.5322 622.501 103.188V105.688H588.411V101.227H617.331C617.331 98.4242 616.763 95.9053 615.626 93.6705C614.509 91.4167 612.946 89.6364 610.939 88.3295C608.95 87.0227 606.649 86.3693 604.036 86.3693C601.27 86.3693 598.837 87.108 596.734 88.5852C594.632 90.0625 592.984 92.0133 591.791 94.4375C590.617 96.8617 590.02 99.5133 590.001 102.392V105.062C590.001 108.528 590.598 111.559 591.791 114.153C593.003 116.729 594.717 118.727 596.933 120.148C599.149 121.568 601.772 122.278 604.803 122.278C606.867 122.278 608.676 121.956 610.229 121.312C611.801 120.669 613.117 119.807 614.178 118.727C615.257 117.629 616.071 116.426 616.621 115.119L621.422 116.682C620.759 118.519 619.67 120.214 618.155 121.767C616.659 123.32 614.784 124.57 612.53 125.517C610.295 126.445 607.719 126.909 604.803 126.909ZM649.355 126.909C645.776 126.909 642.641 125.962 639.952 124.068C637.262 122.174 635.16 119.532 633.645 116.142C632.149 112.752 631.401 108.803 631.401 104.295C631.401 99.8068 632.149 95.8769 633.645 92.5057C635.16 89.1155 637.272 86.483 639.98 84.608C642.688 82.714 645.842 81.767 649.44 81.767C652.092 81.767 654.298 82.2405 656.06 83.1875C657.821 84.1155 659.232 85.2708 660.293 86.6534C661.353 88.036 662.177 89.3807 662.764 90.6875H663.219V67.8182H668.304V126H663.361V117.903H662.764C662.177 119.229 661.344 120.593 660.264 121.994C659.185 123.377 657.755 124.542 655.974 125.489C654.213 126.436 652.007 126.909 649.355 126.909ZM649.952 122.278C652.774 122.278 655.179 121.511 657.168 119.977C659.156 118.424 660.671 116.294 661.713 113.585C662.774 110.858 663.304 107.733 663.304 104.21C663.304 100.725 662.783 97.6477 661.741 94.9773C660.7 92.2879 659.185 90.1856 657.196 88.6705C655.207 87.1364 652.793 86.3693 649.952 86.3693C647.035 86.3693 644.573 87.1648 642.565 88.7557C640.577 90.3277 639.062 92.4583 638.02 95.1477C636.997 97.8371 636.486 100.858 636.486 104.21C636.486 107.6 637.007 110.659 638.048 113.386C639.09 116.114 640.605 118.282 642.594 119.892C644.601 121.483 647.054 122.278 649.952 122.278ZM716.486 82.3636L700.548 126H695.151L679.213 82.3636H684.696L697.651 119.324H698.048L711.003 82.3636H716.486ZM742.459 126.909C738.387 126.909 734.864 125.962 731.891 124.068C728.917 122.155 726.616 119.513 724.987 116.142C723.377 112.752 722.572 108.85 722.572 104.438C722.572 100.044 723.377 96.142 724.987 92.733C726.616 89.3049 728.86 86.625 731.72 84.6932C734.599 82.7424 737.923 81.767 741.692 81.767C744.059 81.767 746.341 82.2027 748.538 83.0739C750.735 83.9261 752.705 85.2424 754.447 87.0227C756.209 88.7841 757.601 91.0095 758.624 93.6989C759.646 96.3693 760.158 99.5322 760.158 103.188V105.688H726.067V101.227H754.987C754.987 98.4242 754.419 95.9053 753.283 93.6705C752.165 91.4167 750.603 89.6364 748.595 88.3295C746.607 87.0227 744.305 86.3693 741.692 86.3693C738.927 86.3693 736.493 87.108 734.391 88.5852C732.288 90.0625 730.641 92.0133 729.447 94.4375C728.273 96.8617 727.677 99.5133 727.658 102.392V105.062C727.658 108.528 728.254 111.559 729.447 114.153C730.66 116.729 732.374 118.727 734.589 120.148C736.805 121.568 739.429 122.278 742.459 122.278C744.523 122.278 746.332 121.956 747.885 121.312C749.457 120.669 750.773 119.807 751.834 118.727C752.913 117.629 753.728 116.426 754.277 115.119L759.078 116.682C758.415 118.519 757.326 120.214 755.811 121.767C754.315 123.32 752.44 124.57 750.186 125.517C747.951 126.445 745.375 126.909 742.459 126.909ZM787.011 126.909C783.432 126.909 780.297 125.962 777.608 124.068C774.919 122.174 772.816 119.532 771.301 116.142C769.805 112.752 769.057 108.803 769.057 104.295C769.057 99.8068 769.805 95.8769 771.301 92.5057C772.816 89.1155 774.928 86.483 777.636 84.608C780.345 82.714 783.498 81.767 787.097 81.767C789.748 81.767 791.955 82.2405 793.716 83.1875C795.477 84.1155 796.888 85.2708 797.949 86.6534C799.009 88.036 799.833 89.3807 800.42 90.6875H800.875V67.8182H805.96V126H801.017V117.903H800.42C799.833 119.229 799 120.593 797.92 121.994C796.841 123.377 795.411 124.542 793.631 125.489C791.869 126.436 789.663 126.909 787.011 126.909ZM787.608 122.278C790.43 122.278 792.835 121.511 794.824 119.977C796.813 118.424 798.328 116.294 799.369 113.585C800.43 110.858 800.96 107.733 800.96 104.21C800.96 100.725 800.439 97.6477 799.398 94.9773C798.356 92.2879 796.841 90.1856 794.852 88.6705C792.864 87.1364 790.449 86.3693 787.608 86.3693C784.691 86.3693 782.229 87.1648 780.222 88.7557C778.233 90.3277 776.718 92.4583 775.676 95.1477C774.653 97.8371 774.142 100.858 774.142 104.21C774.142 107.6 774.663 110.659 775.705 113.386C776.746 116.114 778.261 118.282 780.25 119.892C782.258 121.483 784.71 122.278 787.608 122.278ZM838.006 126.909C833.934 126.909 830.411 125.962 827.438 124.068C824.464 122.155 822.163 119.513 820.534 116.142C818.924 112.752 818.119 108.85 818.119 104.438C818.119 100.044 818.924 96.142 820.534 92.733C822.163 89.3049 824.407 86.625 827.267 84.6932C830.146 82.7424 833.47 81.767 837.239 81.767C839.606 81.767 841.888 82.2027 844.085 83.0739C846.282 83.9261 848.252 85.2424 849.994 87.0227C851.756 88.7841 853.148 91.0095 854.17 93.6989C855.193 96.3693 855.705 99.5322 855.705 103.188V105.688H821.614V101.227H850.534C850.534 98.4242 849.966 95.9053 848.83 93.6705C847.712 91.4167 846.15 89.6364 844.142 88.3295C842.153 87.0227 839.852 86.3693 837.239 86.3693C834.473 86.3693 832.04 87.108 829.938 88.5852C827.835 90.0625 826.188 92.0133 824.994 94.4375C823.82 96.8617 823.223 99.5133 823.205 102.392V105.062C823.205 108.528 823.801 111.559 824.994 114.153C826.206 116.729 827.92 118.727 830.136 120.148C832.352 121.568 834.975 122.278 838.006 122.278C840.07 122.278 841.879 121.956 843.432 121.312C845.004 120.669 846.32 119.807 847.381 118.727C848.46 117.629 849.275 116.426 849.824 115.119L854.625 116.682C853.962 118.519 852.873 120.214 851.358 121.767C849.862 123.32 847.987 124.57 845.733 125.517C843.498 126.445 840.922 126.909 838.006 126.909ZM871.905 98.7273V126H866.848V82.3636H871.763V89.2102H872.217C873.24 86.9754 874.831 85.1856 876.99 83.8409C879.168 82.4773 881.857 81.7955 885.058 81.7955C887.994 81.7955 890.57 82.411 892.786 83.642C895.02 84.8542 896.753 86.6439 897.984 89.0114C899.234 91.3788 899.859 94.286 899.859 97.733V126H894.803V98.0455C894.803 94.4659 893.799 91.6345 891.791 89.5511C889.803 87.4678 887.132 86.4261 883.78 86.4261C881.488 86.4261 879.452 86.9186 877.672 87.9034C875.892 88.8883 874.481 90.3087 873.439 92.1648C872.416 94.0019 871.905 96.1894 871.905 98.7273ZM917.778 109.523L917.722 102.903H918.858L939.312 82.3636H945.705L925.506 102.591L925.051 102.676L917.778 109.523ZM913.176 126V67.8182H918.233V126H913.176ZM940.364 126L922.636 103.585L926.273 100.091L946.841 126H940.364ZM970.371 126.909C966.602 126.909 963.268 125.953 960.371 124.04C957.492 122.127 955.238 119.485 953.609 116.114C951.981 112.723 951.166 108.812 951.166 104.381C951.166 99.911 951.981 95.9811 953.609 92.5909C955.238 89.1818 957.492 86.5303 960.371 84.6364C963.268 82.7235 966.602 81.767 970.371 81.767C974.14 81.767 977.464 82.7235 980.342 84.6364C983.221 86.5492 985.475 89.2008 987.104 92.5909C988.751 95.9811 989.575 99.911 989.575 104.381C989.575 108.812 988.761 112.723 987.132 116.114C985.503 119.485 983.24 122.127 980.342 124.04C977.464 125.953 974.14 126.909 970.371 126.909ZM970.371 122.278C973.401 122.278 975.967 121.464 978.07 119.835C980.172 118.206 981.763 116.038 982.842 113.33C983.941 110.621 984.49 107.638 984.49 104.381C984.49 101.123 983.941 98.1307 982.842 95.4034C981.763 92.6761 980.172 90.4886 978.07 88.8409C975.967 87.1932 973.401 86.3693 970.371 86.3693C967.359 86.3693 964.793 87.1932 962.672 88.8409C960.57 90.4886 958.969 92.6761 957.871 95.4034C956.791 98.1307 956.251 101.123 956.251 104.381C956.251 107.638 956.791 110.621 957.871 113.33C958.969 116.038 960.57 118.206 962.672 119.835C964.774 121.464 967.34 122.278 970.371 122.278Z" fill="black" fill-opacity="0.7"/>
</svg>
